<svg width="105" height="50" viewBox="0 0 105 50" fill="none" xmlns="http://www.w3.org/2000/svg">
<rect width="105" height="50" rx="10" fill="white"/>
<path d="M28.5101 19.9872V30H26.939V25.636H22.0024V30H20.4314V19.9872H22.0024V24.2116H26.939V19.9872H28.5101ZM35.9433 30H34.5119V29.2878C34.4933 29.3064 34.4607 29.3367 34.4141 29.3786C34.3722 29.4205 34.2838 29.4903 34.1488 29.588C34.0184 29.6811 33.8765 29.7673 33.7229 29.8464C33.5692 29.9209 33.3761 29.9884 33.1433 30.0489C32.9106 30.1094 32.6755 30.1396 32.4381 30.1396C31.7398 30.1396 31.1603 29.9372 30.6995 29.5322C30.2386 29.1272 30.0082 28.664 30.0082 28.1427C30.0082 27.5794 30.1851 27.1069 30.5389 26.7252C30.8973 26.3435 31.3861 26.1015 32.0052 25.9991L34.5119 25.5662C34.5119 25.2031 34.3769 24.8982 34.1069 24.6515C33.8416 24.4048 33.4994 24.2814 33.0805 24.2814C32.7174 24.2814 32.3869 24.3582 32.089 24.5118C31.7957 24.6608 31.5932 24.8121 31.4815 24.9657L31.293 25.2101L30.3643 24.2814C30.3922 24.2442 30.4295 24.1976 30.476 24.1417C30.5272 24.0812 30.6366 23.9788 30.8042 23.8345C30.9764 23.6856 31.158 23.5529 31.3488 23.4365C31.5397 23.3201 31.7911 23.2177 32.1029 23.1293C32.4195 23.0362 32.7453 22.9896 33.0805 22.9896C33.9184 22.9896 34.605 23.2387 35.1403 23.7368C35.6756 24.2302 35.9433 24.84 35.9433 25.5662V30ZM32.6545 28.8549C33.2364 28.8549 33.6903 28.6826 34.0161 28.3382C34.3466 27.9891 34.5119 27.4933 34.5119 26.8509V26.7113L32.2915 27.0674C32.0354 27.1139 31.8283 27.2187 31.67 27.3816C31.5118 27.5445 31.4326 27.7493 31.4326 27.996C31.4326 28.2241 31.542 28.4243 31.7608 28.5965C31.9842 28.7688 32.2822 28.8549 32.6545 28.8549ZM38.3072 23.1363H43.5999V30H42.1685V24.421H39.7386V25.1402C39.7386 26.4483 39.6339 27.4817 39.4244 28.2404C39.2196 28.9945 38.9543 29.4996 38.6284 29.7556C38.3072 30.0116 37.8906 30.1396 37.3786 30.1396C37.2529 30.1396 37.1179 30.128 36.9736 30.1047C36.8339 30.0815 36.7246 30.0559 36.6454 30.0279L36.5197 30V28.6384C36.7106 28.685 36.8758 28.7106 37.0155 28.7152C37.3087 28.7152 37.5392 28.6361 37.7067 28.4778C37.879 28.3196 38.021 27.9704 38.1327 27.4305C38.249 26.8858 38.3072 26.1224 38.3072 25.1402V23.1363ZM50.1813 23.1363H51.466V30H50.0346V25.4963L46.4596 30H45.1749V23.1363H46.6063V27.6399L50.1813 23.1363ZM57.3352 30V27.4235C56.8604 27.7586 56.2878 27.9262 55.6175 27.9262C54.7889 27.9262 54.1279 27.6772 53.6345 27.1791C53.1457 26.6764 52.9013 25.9967 52.9013 25.1402V23.1363H54.3258V25.1402C54.3258 25.5685 54.4631 25.9269 54.7377 26.2155C55.017 26.4995 55.3568 26.6415 55.7571 26.6415C56.0504 26.6415 56.3274 26.5949 56.5881 26.5018C56.8534 26.4041 57.0442 26.3063 57.1606 26.2085L57.3352 26.0689V23.1363H58.7596V30H57.3352ZM61.7659 27.1372V30H60.3345V23.1363H61.7659V25.8524H65.1245V23.1363H66.5559V30H65.1245V27.1372H61.7659ZM69.5622 28.7851H71.0635C71.3893 28.7851 71.6616 28.6757 71.8804 28.4569C72.0992 28.2381 72.2086 27.9658 72.2086 27.6399C72.2086 27.3141 72.0992 27.0418 71.8804 26.823C71.6616 26.6042 71.3893 26.4948 71.0635 26.4948H69.5622V28.7851ZM72.9278 25.9502C73.4026 26.3924 73.64 26.958 73.64 27.6469C73.64 28.3312 73.4026 28.8944 72.9278 29.3367C72.4576 29.7789 71.8362 30 71.0635 30H68.1308V23.1363H69.5622V25.2799H71.0635C71.8362 25.2799 72.4576 25.5033 72.9278 25.9502ZM76.0699 23.1363V30H74.6385V23.1363H76.0699ZM84.0058 27.0674H78.6433C78.7178 27.5515 78.9552 27.9704 79.3555 28.3242C79.7605 28.678 80.2399 28.8549 80.7939 28.8549C81.1942 28.8549 81.5666 28.7641 81.9111 28.5826C82.2602 28.401 82.5069 28.2241 82.6512 28.0519L82.8677 27.7866L83.7963 28.7152C83.7684 28.7525 83.7242 28.806 83.6637 28.8758C83.6078 28.941 83.4844 29.055 83.2936 29.218C83.1027 29.3762 82.9002 29.5182 82.6861 29.6439C82.472 29.7649 82.1927 29.879 81.8482 29.986C81.5084 30.0884 81.157 30.1396 80.7939 30.1396C79.821 30.1396 78.9808 29.7835 78.2732 29.0713C77.5703 28.3545 77.2189 27.4956 77.2189 26.4948C77.2189 25.5312 77.561 24.7073 78.2453 24.023C78.9342 23.3341 79.7582 22.9896 80.7171 22.9896C81.6806 22.9896 82.4813 23.3108 83.119 23.9532C83.7614 24.591 84.0826 25.3916 84.0826 26.3552L84.0058 27.0674ZM80.7171 24.2116C80.2004 24.2116 79.7651 24.3652 79.4114 24.6724C79.0622 24.975 78.8272 25.3683 78.7061 25.8524H82.6791C82.5953 25.3683 82.3789 24.975 82.0298 24.6724C81.6806 24.3652 81.2431 24.2116 80.7171 24.2116Z" fill="black"/>
</svg>
